<svg width="22" height="22" viewBox="0 0 22 22" fill="none" xmlns="http://www.w3.org/2000/svg">
<path d="M12.8457 8.76103C13.0267 8.9696 13.3425 8.99196 13.551 8.81099C13.7596 8.63001 13.782 8.31422 13.601 8.10565L12.8457 8.76103ZM9.15443 13.239C8.97345 13.0304 8.65766 13.008 8.44909 13.189C8.24051 13.37 8.21815 13.6858 8.39912 13.8944L9.15443 13.239ZM11.5 6.72223C11.5 6.44608 11.2762 6.22223 11 6.22223C10.7239 6.22223 10.5 6.44608 10.5 6.72223H11.5ZM10.5 15.2778C10.5 15.5539 10.7239 15.7778 11 15.7778C11.2762 15.7778 11.5 15.5539 11.5 15.2778L10.5 15.2778ZM18.2 11C18.2 14.9765 14.9765 18.2 11 18.2V19.2C15.5288 19.2 19.2 15.5287 19.2 11H18.2ZM11 18.2C7.0236 18.2 3.80005 14.9765 3.80005 11H2.80005C2.80005 15.5287 6.47131 19.2 11 19.2V18.2ZM3.80005 11C3.80005 7.02355 7.0236 3.8 11 3.8V2.8C6.47131 2.8 2.80005 6.47127 2.80005 11H3.80005ZM11 3.8C14.9765 3.8 18.2 7.02355 18.2 11H19.2C19.2 6.47127 15.5288 2.8 11 2.8V3.8ZM11 10.5C10.3762 10.5 9.83408 10.3305 9.46249 10.0828C9.08741 9.83275 8.93338 9.54221 8.93338 9.28889H7.93338C7.93338 9.98059 8.35392 10.5456 8.90779 10.9149C9.46515 11.2864 10.2063 11.5 11 11.5V10.5ZM8.93338 9.28889C8.93338 9.03557 9.08741 8.74503 9.46249 8.49498C9.83408 8.24725 10.3762 8.07778 11 8.07778V7.07778C10.2063 7.07778 9.46515 7.29135 8.90779 7.66293C8.35392 8.03217 7.93338 8.59719 7.93338 9.28889H8.93338ZM11 8.07778C11.8468 8.07778 12.5211 8.38694 12.8457 8.76103L13.601 8.10565C13.038 7.45683 12.0534 7.07778 11 7.07778V8.07778ZM11 11.5C11.6239 11.5 12.166 11.6695 12.5376 11.9172C12.9127 12.1673 13.0667 12.4578 13.0667 12.7111H14.0667C14.0667 12.0194 13.6462 11.4544 13.0923 11.0851C12.5349 10.7136 11.7938 10.5 11 10.5V11.5ZM10.5 6.72223V7.57778H11.5V6.72223H10.5ZM10.5001 14.4222L10.5 15.2778L11.5 15.2778L11.5001 14.4222L10.5001 14.4222ZM11.0001 13.9222C10.1534 13.9222 9.47902 13.6131 9.15443 13.239L8.39912 13.8944C8.9621 14.5432 9.94672 14.9222 11.0001 14.9222L11.0001 13.9222ZM13.0667 12.7111C13.0667 12.9644 12.9127 13.255 12.5376 13.505C12.166 13.7528 11.6239 13.9222 11.0001 13.9222V14.9222C11.7938 14.9222 12.535 14.7087 13.0923 14.3371C13.6462 13.9678 14.0667 13.4028 14.0667 12.7111H13.0667ZM10.5 7.57778L10.5001 14.4222L11.5001 14.4222L11.5 7.57778L10.5 7.57778Z" fill="black"/>
</svg>
